Coordinates
version=1
nRows=13
nColumns=36
inDegrees=yes

Units are S.I. units (second, meters, Newtons, ...)
If the header above contains a line with 'inDegrees', this indicates whether rotational values are in degrees (yes) or radians (no).

endheader
time	pelvis_tilt	pelvis_list	pelvis_rotation	pelvis_tx	pelvis_ty	pelvis_tz	hip_flexion_r	hip_adduction_r	hip_rotation_r	knee_angle_r	knee_angle_r_beta	ankle_angle_r	subtalar_angle_r	mtp_angle_r	hip_flexion_l	hip_adduction_l	hip_rotation_l	knee_angle_l	knee_angle_l_beta	ankle_angle_l	subtalar_angle_l	mtp_angle_l	lumbar_extension	lumbar_bending	lumbar_rotation	arm_flex_r	arm_add_r	arm_rot_r	elbow_flex_r	pro_sup_r	arm_flex_l	arm_add_l	arm_rot_l	elbow_flex_l	pro_sup_l
     29.83333330	      2.42426025	     -2.91470652	     -0.68698660	      0.55826497	      1.03370538	      0.71674699	    -12.08182606	      2.64209545	      3.66387989	     11.89897166	      0.20767623	     13.62691812	     -4.47157871	     -7.49999987	     18.15864749	     -3.42805444	      2.38795518	     10.20899571	      0.17818059	     -2.11006379	      0.59720234	     -7.49999987	    -15.50547963	      2.10023990	      5.21671351	      7.10399086	    -16.17036957	      6.10106242	     34.62289556	     79.96279231	      7.61595523	     -8.88850277	     16.58589195	     17.52976113	     89.84007243
     29.85000000	      2.27274113	     -2.69292779	     -0.73632813	      0.55894583	      1.03363533	      0.71695619	    -11.02269853	      2.09805715	      4.08034142	     14.87229412	      0.25957050	     11.98315346	     -6.26007696	     -7.49999987	     17.95421056	     -3.03561152	      2.18713678	     11.56358214	      0.20182258	     -2.45949385	      0.59552324	     -7.49999987	    -14.94863191	      1.68305026	      5.18836411	      6.32888536	    -15.76326928	      5.42408262	     33.71205590	     79.65491655	      7.71091766	     -9.05615157	     18.04866404	     17.02423637	     88.94629244
     29.86666670	      2.66097753	     -2.39630554	     -0.71878165	      0.55998535	      1.03442368	      0.71615888	    -10.04010463	      1.44618552	      3.92931248	     18.62278719	      0.32502895	     10.45532456	     -7.26882678	     -7.49999987	     17.11250993	     -2.58718559	      2.09411421	     12.72859852	      0.22215595	     -2.64110031	      0.45059583	     -7.49999987	    -15.33248782	      1.14796699	      4.95258440	      5.82942146	    -15.50887539	      5.33369526	     33.38471406	     79.77832394	      7.81400447	     -9.35757868	     18.12089884	     17.11751162	     89.04307227
     29.88333330	      2.02192591	     -2.15234985	     -1.02826134	      0.56189598	      1.03398896	      0.71509267	     -7.18885306	      1.03969203	      4.82282328	     23.61942533	      0.41223674	      7.78305033	    -10.42443846	     -7.49999987	     17.38797559	     -2.34517077	      1.51978948	     13.96694350	      0.24376915	     -2.59767640	      0.10075948	     -7.49999987	    -14.38484965	      0.61605038	      5.12390441	      5.24988808	    -15.02847148	      4.71255888	     32.42836177	     80.16132629	      7.66991554	     -9.73530227	     18.56460038	     17.47627278	     89.31274139
     29.90000000	      2.31544008	     -1.72451518	     -1.18331478	      0.56305975	      1.03464818	      0.71381064	     -4.94097897	      0.33299834	      4.88829160	     29.21273325	      0.50985838	      5.56215877	    -11.90847073	     -7.49999987	     16.62097757	     -1.82087430	      1.12542898	     15.06646596	      0.26295944	     -2.22434378	     -0.39996978	     -7.49999987	    -14.76762665	     -0.11603376	      4.92392049	      4.93128191	    -14.58765161	      4.51462312	     32.09288535	     80.28531514	      7.94836219	    -10.21490603	     18.68677098	     17.67312360	     89.34274987
     29.91666670	      1.69514043	     -1.29518940	     -1.60738550	      0.56450438	      1.03482254	      0.71346237	     -1.52224247	     -0.17263840	      5.57911474	     34.90702394	      0.60924250	      2.02409256	    -14.37927763	     -7.49999987	     16.69746631	     -1.38554481	      0.52230182	     15.90255487	      0.27755194	     -1.83701195	     -0.97163576	     -7.49999987	    -13.91302098	     -0.89662840	      5.33456446	      4.26425111	    -14.15005486	      3.99080693	     31.09457598	     80.69894930	      8.05969236	    -10.63677545	     19.01294441	     18.08365486	     89.59113584
     29.93333330	      1.54026184	     -0.83115944	     -1.87472873	      0.56634676	      1.03587440	      0.71267449	      1.28287769	     -0.70281955	      5.91126565	     40.20239790	      0.70166421	     -0.88448510	    -15.95799739	     -7.49999987	     16.27950100	     -0.83064853	      0.17943191	     16.70201634	      0.29150518	     -1.12057793	     -1.64347525	     -7.49999987	    -13.65605653	     -1.66346934	      5.46080014	      3.73241876	    -13.59371804	      3.13676488	     30.30811946	     81.53921857	      8.33272882	    -11.17515839	     19.44721494	     18.45067262	     89.97482359
     29.95000000	      1.76302763	     -0.32517055	     -2.30622051	      0.56910953	      1.03693701	      0.71116221	      3.51496143	     -1.23987875	      6.38513091	     44.93414791	      0.78424883	     -3.41236627	    -16.93588331	     -7.49999987	     15.17027973	     -0.20048108	     -0.09949015	     16.99849329	      0.29667968	     -0.53980569	     -2.51241118	     -7.49999987	    -13.84945311	     -2.49343054	      5.80867124	      3.23547811	    -13.21469977	      2.72958201	     29.71350525	     82.05899813	      8.67883914	    -11.66348925	     19.54859628	     18.98205445	     90.06320559
     29.96666670	      2.11627786	      0.12922453	     -2.74276045	      0.57248146	      1.03709178	      0.70811256	      5.38893324	     -1.68161509	      6.84431099	     49.10626438	      0.85706600	     -5.62122568	    -17.56361830	     -7.49999987	     13.77177340	      0.44581353	     -0.27029114	     17.03743391	      0.29735932	      0.01002159	     -3.40553220	     -7.49999987	    -14.07673902	     -3.22768180	      6.22389919	      2.70447636	    -12.58641814	      0.18404673	     29.10473039	     86.32729626	      9.01280094	    -12.10007316	     20.12729190	     19.39816171	     90.95768247
     29.98333330	      2.62977988	      0.48389108	     -3.10879628	      0.57490492	      1.03660939	      0.70350320	      6.85896515	     -2.00885156	      7.19181364	     52.70649583	      0.91990189	     -7.39636839	    -17.90648962	     -7.49999987	     12.12104785	      1.06813420	     -0.39264242	     16.89077100	      0.29479957	      0.62689690	     -4.19085060	     -7.49999987	    -14.46927788	     -3.77994142	      6.38250471	      2.34522019	    -12.45443029	      0.25267971	     28.74948949	     86.37797431	      9.23847711	    -12.35151391	     20.03695039	     19.63809408	     90.88480654
     30.00000000	      3.05917737	      0.76364550	     -3.50798537	      0.57528509	      1.03557229	      0.69862696	      8.23185791	     -2.20214446	      7.56825150	     55.73515445	      0.97276195	     -8.92235638	    -18.36811459	     -7.49999987	     10.42483073	      1.66884189	     -0.43455211	     16.39504369	      0.28614749	      0.98755270	     -5.15917064	     -7.49999987	    -14.73026176	     -4.18545397	      6.74180338	      1.96712392	    -12.47620669	      0.28074614	     28.14797734	     86.42608301	      9.42710403	    -12.49041345	     20.03649428	     20.14504154	     90.78202273
     30.01666670	      3.50930835	      0.92739426	     -3.82513143	      0.57397708	      1.03479326	      0.69433317	      9.46496365	     -2.27414216	      7.76622239	     58.29761964	      1.01748541	     -9.72544545	    -18.55704721	     -7.49999987	      8.72916846	      2.18512109	     -0.29360429	     15.86010921	      0.27681113	      1.41201420	     -6.09901226	     -7.49999987	    -15.10398878	     -4.43422575	      6.93999899	      1.69058662	    -12.59570296	      0.30357422	     27.60886644	     86.49400296	      9.64370727	    -12.61212955	     20.18416877	     20.62066410	     90.71588837
     30.03333330	      3.88490432	      1.00366535	     -4.02633459	      0.57303736	      1.03548237	      0.69082298	     10.67649654	     -2.25376041	      7.74096550	     60.48852391	      1.05572390	     -9.83898449	    -18.59360346	     -7.49999987	      7.19373919	      2.58433042	     -0.09410729	     15.47872261	      0.27015467	      2.15981105	     -6.67405507	     -7.49999987	    -15.42995207	     -4.51075918	      6.91610054	      1.50443371	    -12.73339369	      0.30850289	     27.40575690	     86.50888276	      9.92405749	    -12.74483064	     20.27545249	     20.89344065	     90.68321668
